<svg width="100" height="100" viewBox="0 0 100 100" fill="none" xmlns="http://www.w3.org/2000/svg">
<path d="M100 52.3591C99.991 46.7862 98.3789 41.3338 95.3562 36.6532C92.3335 31.9726 88.0281 28.2618 82.9544 25.9641C83.0377 25.3106 83.079 24.6523 83.078 23.9935C83.0775 21.2393 82.3569 18.5332 80.9879 16.1439C79.6188 13.7547 77.6489 11.7654 75.2739 10.3737C72.8988 8.982 70.2013 8.23631 67.4491 8.21069C64.6969 8.18508 61.986 8.88043 59.5855 10.2277C55.7557 5.70652 50.6311 2.47098 44.9044 0.958381C39.1777 -0.554216 33.1249 -0.270937 27.5643 1.76993C22.0037 3.81079 17.2032 7.51084 13.8118 12.37C10.4205 17.2291 8.60166 23.013 8.60126 28.9399C8.60126 29.8371 8.64333 30.7422 8.72746 31.642C4.95883 35.3204 2.26498 39.9583 0.936302 45.0559C-0.392374 50.1534 -0.305472 55.5172 1.18764 60.5689C2.68075 65.6206 5.52344 70.1688 9.40925 73.723C13.2951 77.2772 18.0766 79.7026 23.2384 80.7379V92.1068C23.2384 94.2002 24.0694 96.2079 25.5487 97.6881C27.028 99.1684 29.0343 100 31.1262 100H68.8721C70.964 100 72.9703 99.1684 74.4496 97.6881C75.9288 96.2079 76.7599 94.2002 76.7599 92.1068V80.7379C83.3157 79.427 89.2147 75.8825 93.4522 70.708C97.6897 65.5336 100.004 59.0491 100 52.3591ZM40.4628 78.5883C40.5154 78.5462 40.5706 78.5041 40.6258 78.4673L40.7152 78.4094L40.823 78.3436L40.9466 78.2805L41.0281 78.241L41.1727 78.1805L41.2384 78.1568C41.2936 78.1358 41.3488 78.12 41.404 78.1042L41.454 78.091C41.5145 78.0752 41.5776 78.0595 41.6407 78.0489C41.7111 78.0354 41.7822 78.0258 41.8537 78.02H41.901C41.9667 78.02 42.0324 78.02 42.0982 78.02H57.8738C57.9395 78.02 58.0053 78.02 58.071 78.02H58.1183C58.1898 78.0258 58.2609 78.0354 58.3313 78.0489H58.3471C58.4075 78.0489 58.4707 78.0752 58.5311 78.091L58.5811 78.1042C58.6363 78.12 58.6915 78.1358 58.7467 78.1568L58.8098 78.1805L58.9597 78.241L59.0359 78.2778C59.0806 78.2989 59.1227 78.3226 59.1648 78.3462L59.2647 78.4068L59.362 78.4673C59.4119 78.5015 59.4593 78.5383 59.5066 78.5778L59.5487 78.6093C60.008 78.9887 60.325 79.5128 60.4479 80.0959C60.461 80.1696 60.4715 80.2432 60.482 80.3195C60.4808 80.3318 60.4808 80.3441 60.482 80.3564C60.482 80.4458 60.4952 80.5353 60.4952 80.6195V94.7221H39.4821V80.6195C39.4821 80.53 39.4821 80.4406 39.4952 80.3564C39.4965 80.3433 39.4965 80.33 39.4952 80.3169C39.4952 80.2406 39.5162 80.1669 39.5294 80.0959C39.6517 79.5118 39.9688 78.9867 40.4286 78.6067L40.4628 78.5883ZM71.4882 92.1068C71.4882 92.8046 71.2112 93.4738 70.7181 93.9672C70.225 94.4606 69.5562 94.7378 68.8589 94.7378H65.7748V80.6353C65.7748 80.5011 65.7748 80.3722 65.7748 80.2327C65.7748 80.2143 65.7748 80.1985 65.7748 80.1827C65.7748 80.0643 65.759 79.9459 65.7458 79.8302C65.5648 78.0164 64.7567 76.3228 63.461 75.0416C63.4242 75.0048 63.3821 74.9732 63.3453 74.9364C63.2533 74.8495 63.1586 74.7627 63.0614 74.6733L62.8905 74.5259C62.7616 74.4207 62.6275 74.3207 62.4934 74.2233L62.3567 74.1313C62.2016 74.0234 62.0412 73.9234 61.8756 73.8261L61.794 73.7787C61.6126 73.6761 61.426 73.5761 61.234 73.4866C60.2965 73.0474 59.2814 72.7979 58.2472 72.7526H57.8975H42.1113H41.7616C40.5138 72.8079 39.2971 73.1596 38.2121 73.7787L38.1332 73.8261C37.9676 73.9234 37.8072 74.0234 37.6494 74.1339L37.5206 74.2233C37.3839 74.3233 37.2577 74.4259 37.1131 74.5364C37.0605 74.5785 37.0079 74.6259 36.9553 74.6733C36.8554 74.7601 36.7555 74.8469 36.6608 74.9364L36.5504 75.0363C35.1676 76.405 34.3429 78.2394 34.2367 80.1827C34.2367 80.1985 34.2367 80.2143 34.2367 80.2301C34.2367 80.3616 34.2367 80.4932 34.2367 80.6326V94.7352H31.1262C30.4289 94.7352 29.7601 94.458 29.2671 93.9646C28.774 93.4712 28.497 92.8019 28.497 92.1041V46.626C28.497 45.9282 28.774 45.259 29.2671 44.7655C29.7601 44.2721 30.4289 43.9949 31.1262 43.9949H34.2235V47.7784C34.2235 48.8149 34.4275 49.8413 34.8239 50.799C35.2203 51.7566 35.8013 52.6268 36.5338 53.3597C37.2662 54.0927 38.1358 54.6741 39.0928 55.0708C40.0498 55.4675 41.0755 55.6716 42.1113 55.6716H57.887C59.9789 55.6716 61.9852 54.84 63.4645 53.3597C64.9437 51.8795 65.7748 49.8718 65.7748 47.7784V47.1443L71.5013 52.8748V92.1068H71.4882ZM39.4821 43.9949H60.5162V47.7784C60.5162 48.4762 60.2392 49.1454 59.7461 49.6388C59.253 50.1323 58.5843 50.4095 57.887 50.4095H42.1113C41.414 50.4095 40.7452 50.1323 40.2521 49.6388C39.7591 49.1454 39.4821 48.4762 39.4821 47.7784V43.9949ZM76.7599 75.3521V52.3302C76.7615 51.8113 76.6601 51.2974 76.4614 50.8182C76.2628 50.3389 75.971 49.904 75.603 49.5386L65.9614 39.8904C65.5963 39.5221 65.1616 39.2301 64.6827 39.0314C64.2038 38.8326 63.6902 38.7311 63.1718 38.7328H31.1262C29.0343 38.7328 27.028 39.5644 25.5487 41.0446C24.0694 42.5249 23.2384 44.5326 23.2384 46.626V75.3521C19.0501 74.3142 15.2251 72.1502 12.1772 69.0941C9.12917 66.038 6.97422 62.2061 5.94539 58.0129C4.91656 53.8197 5.05301 49.4248 6.33999 45.3036C7.62697 41.1824 10.0155 37.4918 13.2472 34.6309C13.5725 34.3425 13.8213 33.9779 13.9714 33.5697C14.1214 33.1615 14.168 32.7225 14.107 32.2919C13.3576 27.0294 14.3994 21.6677 17.0647 17.0697C19.73 12.4716 23.8639 8.90473 28.8009 6.94303C33.7379 4.98134 39.1909 4.73895 44.2822 6.2549C49.3736 7.77084 53.8072 10.9569 56.8694 15.3004C57.0771 15.5952 57.3431 15.8441 57.6509 16.0317C57.9587 16.2193 58.3018 16.3416 58.6588 16.391C59.0158 16.4403 59.3792 16.4157 59.7263 16.3186C60.0734 16.2215 60.3969 16.054 60.6766 15.8266C62.5431 14.2907 64.8859 13.4534 67.3024 13.4586C68.9289 13.4585 70.5333 13.836 71.9894 14.5613C73.4456 15.2866 74.7137 16.3399 75.6943 17.6386C76.6748 18.9372 77.3409 20.4458 77.6403 22.0456C77.9397 23.6455 77.8643 25.293 77.4198 26.8587C77.2382 27.5004 77.3068 28.1872 77.6119 28.7801C77.9169 29.3731 78.4357 29.828 79.0631 30.0528C83.851 31.7659 87.96 34.9767 90.7817 39.2095C93.6033 43.4423 94.9875 48.4721 94.729 53.5537C94.4706 58.6353 92.5834 63.4984 89.3469 67.4227C86.1104 71.347 81.6968 74.1237 76.7599 75.3416V75.3521Z" fill="black"/>
</svg>
